<svg width="23" height="36" viewBox="0 0 23 36" fill="none" xmlns="http://www.w3.org/2000/svg">
<path d="M16.9285 0.149902H5.08533C2.36512 0.149902 0.150391 2.36463 0.150391 5.08485V11.1499V24.1499V30.7462C0.150391 33.4664 2.36512 35.6812 5.08533 35.6812H16.9285C19.6487 35.6812 21.8634 33.4664 21.8634 30.7462V5.08485C21.8634 2.3629 19.6487 0.149902 16.9285 0.149902ZM19.8902 30.7445C19.8902 32.3773 18.5613 33.7061 16.9285 33.7061H5.08533C3.45251 33.7061 2.12367 32.3773 2.12367 30.7445V24.1499V11.1499V5.08485C2.12367 3.45202 3.45251 2.12319 5.08533 2.12319H16.9285C18.5613 2.12319 19.8902 3.45202 19.8902 5.08485V30.7445Z" fill="white" stroke="white" stroke-width="0.3"/>
<path d="M11.0088 28.9185C11.517 28.9186 11.9287 29.3311 11.9287 29.8394C11.9285 30.3475 11.5169 30.7591 11.0088 30.7593C10.5005 30.7593 10.0881 30.3476 10.0879 29.8394C10.0879 29.331 10.5004 28.9185 11.0088 28.9185Z" fill="white" stroke="white" stroke-width="2.10551"/>
<mask id="path-3-inside-1_986_13904" fill="white">
<path d="M12.9808 4.01367H9.03254C8.48711 4.01367 8.0459 4.45488 8.0459 5.00031C8.0459 5.54575 8.48711 5.98695 9.03254 5.98695H12.9808C13.5263 5.98695 13.9675 5.54575 13.9675 5.00031C13.9675 4.45488 13.5263 4.01367 12.9808 4.01367Z"/>
</mask>
<path d="M12.9808 4.01367H9.03254C8.48711 4.01367 8.0459 4.45488 8.0459 5.00031C8.0459 5.54575 8.48711 5.98695 9.03254 5.98695H12.9808C13.5263 5.98695 13.9675 5.54575 13.9675 5.00031C13.9675 4.45488 13.5263 4.01367 12.9808 4.01367Z" fill="white"/>
<path d="M12.9808 1.90816H9.03254V6.11918H12.9808V1.90816ZM9.03254 1.90816C7.32427 1.90816 5.94039 3.29204 5.94039 5.00031H10.1514C10.1514 5.61772 9.64995 6.11918 9.03254 6.11918V1.90816ZM5.94039 5.00031C5.94039 6.70859 7.32427 8.09246 9.03254 8.09246V3.88145C9.64995 3.88145 10.1514 4.3829 10.1514 5.00031H5.94039ZM9.03254 8.09246H12.9808V3.88145H9.03254V8.09246ZM12.9808 8.09246C14.6891 8.09246 16.073 6.70859 16.073 5.00031H11.862C11.862 4.38291 12.3634 3.88145 12.9808 3.88145V8.09246ZM16.073 5.00031C16.073 3.29204 14.6891 1.90816 12.9808 1.90816V6.11918C12.3634 6.11918 11.862 5.61772 11.862 5.00031H16.073Z" fill="white" mask="url(#path-3-inside-1_986_13904)"/>
</svg>
